<?xml version="1.0" encoding="utf-8"?>
<!-- Generator: Adobe Illustrator 16.0.0, SVG Export Plug-In . SVG Version: 6.00 Build 0)  -->
<!DOCTYPE svg PUBLIC "-//W3C//DTD SVG 1.1//EN" "http://www.w3.org/Graphics/SVG/1.1/DTD/svg11.dtd">
<svg version="1.1" id="Layer_1" xmlns="http://www.w3.org/2000/svg" xmlns:xlink="http://www.w3.org/1999/xlink" x="0px" y="0px"
	 width="876.016px" height="250px" viewBox="0 0 876.016 250" enable-background="new 0 0 876.016 250" xml:space="preserve">
<g>
	<path fill="#FFFFFF" d="M260.968,154.633l0.151-0.318c9.133-19.186,8.805-41.924-0.876-60.829l-0.166-0.324l10.977-10.975
		l0.327,0.561c14.711,25.246,15.094,56.816,0.998,82.395l-0.321,0.584L260.968,154.633z"/>
	<path fill="#FFFFFF" d="M118.038,104.371l0.162-0.625c1.924-7.423,4.817-14.481,8.6-20.979l0.327-0.561l11.003,11l-0.166,0.324
		c-1.692,3.307-3.137,6.837-4.294,10.494l-0.11,0.349h-15.522V104.371z"/>
	<path fill="#FFFFFF" d="M125.823,165.102c-8.9-16.164-12.181-35.194-9.238-53.586l0.151-0.946l11.482,11.074l-0.107,0.03
		l2.356,2.271l-0.002,0.215c-0.096,10.389,2.192,20.803,6.618,30.114l0.151,0.319l-11.091,11.091L125.823,165.102z"/>
	<path fill="#FFFFFF" d="M157.417,104.408l-5.614-0.037h-4.529l0.282-0.689c1.914-4.673,4.451-9.056,7.543-13.033l-19.846-19.848
		l0.301-0.352c1.486-1.736,2.933-3.303,4.421-4.79c2.766-2.765,5.758-5.365,8.895-7.729l0.426-0.321l23.647,35.988l-0.333,0.287
		c-0.779,0.669-1.578,1.356-2.316,2.094c-2.361,2.36-4.474,5.114-6.28,8.184l-0.145,0.247L157.417,104.408L157.417,104.408z"/>
	<path fill="#FFFFFF" d="M186.224,178.996c-10.029-2.372-19.195-7.491-26.507-14.805c-6.809-6.81-11.754-15.295-14.302-24.545
		l-0.485-1.761l43.07,41.53L186.224,178.996z"/>
	<path fill="#FFFFFF" d="M281.494,175.162l0.204-0.336c21.861-36.014,17.996-81.45-9.579-113.236l-19.798,19.798l-0.351-0.421
		c-1.431-1.719-2.838-3.265-4.302-4.728c-0.856-0.856-1.794-1.736-2.955-2.771l-0.089-0.079l-9.542-24.112l1.166,0.578
		c5.492,2.723,10.668,6.039,15.394,9.861l19.8-19.802l0.352,0.303c2.41,2.076,4.378,3.889,6.192,5.703
		c18.182,18.182,29.588,42.262,32.116,67.804c2.493,25.19-3.688,50.684-17.408,71.786l-0.337,0.518L281.494,175.162z"/>
	<path fill="#FFFFFF" d="M232.595,155.938h12.714l-0.551,0.787c-1.891,2.697-3.994,5.209-6.252,7.469
		c-0.129,0.13-0.26,0.252-0.391,0.373l-0.748,0.72L232.595,155.938z"/>
	<path fill="#FFFFFF" d="M124.947,208.1c-1.731-1.541-3.272-2.988-4.712-4.428c-43.491-43.494-43.491-114.261,0-157.751
		c4.043-4.045,8.515-7.861,13.292-11.343l0.424-0.309l8.226,12.509l-0.38,0.281c-3.937,2.909-7.632,6.084-10.985,9.437
		c-35.026,35.026-37.604,92.029-5.97,130.02l19.85-19.85l0.348,0.443c1.8,2.291,3.603,4.334,5.513,6.244
		c12.968,12.969,30.214,20.108,48.561,20.107c1.047,0,2.108-0.023,3.152-0.07l0.215-0.012l13.737,13.245l-0.941,0.187
		c-5.317,1.043-10.763,1.57-16.188,1.57c-19.796,0-38.951-7.02-53.992-19.771l-19.798,19.801L124.947,208.1z"/>
	<path fill="#FFFFFF" d="M249.109,42.18c-6.32-3.833-13.151-6.946-20.303-9.253l-0.224-0.073l-6.833-17.263l0.915,0.197
		c13.313,2.866,25.803,8.047,37.123,15.4l0.518,0.336l-10.859,10.859L249.109,42.18z"/>
	<path fill="#FFFFFF" d="M256.386,202.545l0.338-0.253c1.932-1.438,3.799-2.938,5.559-4.462l-9.191-9.189
		c-0.649,0.547-1.363,1.127-2.215,1.799l-0.478,0.377l-6.946-13.604l0.298-0.257c1.526-1.312,2.771-2.453,3.918-3.601
		c1.878-1.881,3.724-3.973,5.483-6.215l0.348-0.442l30.461,30.461l-0.302,0.352c-2.013,2.343-3.869,4.358-5.675,6.163
		c-4.339,4.344-9.13,8.391-14.24,12.031l-0.472,0.336L256.386,202.545z"/>
	<path fill="#FFFFFF" d="M199.101,236.314c-22.353,0-43.903-6.574-62.322-19.014l-0.502-0.339l10.815-10.815l0.338,0.215
		c15.429,9.796,33.299,14.974,51.679,14.974c9.428,0,18.775-1.367,27.782-4.063l0.28-0.082l12.108,11.675l-0.74,0.278
		c-12.625,4.76-25.893,7.172-39.435,7.172C199.103,236.314,199.103,236.314,199.101,236.314z"/>
	<path fill="#EEC328" d="M199.106,0c-69.035,0-125,55.964-125,125c0,69.035,55.965,125,125,125c18.001,0,35.097-3.835,50.556-10.684
		l-10.961-10.57c-12.303,4.699-25.642,7.295-39.595,7.295c-61.326,0-111.042-49.714-111.042-111.041
		c0-40.965,22.199-76.724,55.208-95.969l6.589,10.017l27.063,41.185l22.868,34.794l0.033,0.047h-25.32h-22.672l-0.027-0.036h-15.069
		l12.275,11.84l-0.104,0.028l111.745,107.75l0.129-0.033l-45.607-89.354h15.987h25.226h5.087l-14.362-36.285h0.127l-37.401-94.502
		c56.291,5.4,100.311,52.812,100.311,110.516c0,37.313-18.424,70.304-46.65,90.438L269.913,228
		c32.727-22.54,54.193-60.256,54.193-103C324.106,55.964,268.143,0,199.106,0z"/>
</g>
<g>
	<path fill="#EEC328" d="M414.789,117.598c-2.828-0.984-5.872-1.761-9.123-2.326c-3.255-0.562-7.075-0.846-11.459-0.846
		c-2.406,0-4.95,0.178-7.636,0.529c-2.69,0.354-4.953,0.813-6.791,1.375l-21.244,89.243h-25.588l25.377-105.526
		c5.921-1.973,12.335-3.701,19.245-5.181c6.906-1.48,14.38-2.221,22.417-2.221c1.69,0,3.595,0.105,5.71,0.317
		c2.115,0.211,4.191,0.459,6.238,0.74c2.041,0.284,3.943,0.635,5.709,1.058c1.762,0.423,3.277,0.918,4.548,1.48L414.789,117.598z"/>
	<path fill="#EEC328" d="M501.917,162.643c-0.422,1.553-0.846,4.092-1.268,7.613c-0.425,3.525-0.636,6.84-0.636,9.939
		c0,4.091,0.351,8.072,1.058,11.949c0.703,3.879,1.83,7.791,3.383,11.734l-22.838,3.385c-1.693-3.385-3.033-6.979-4.021-10.785
		c-3.524,3.104-7.858,5.889-13.006,8.354c-5.146,2.466-10.963,3.701-17.445,3.701c-6.629,0-12.303-1.094-17.024-3.277
		c-4.727-2.185-8.564-5.215-11.525-9.094c-2.96-3.876-5.146-8.423-6.556-13.641c-1.411-5.215-2.115-10.854-2.115-16.918
		c0-10.289,1.831-19.879,5.499-28.763c3.665-8.882,8.776-16.564,15.332-23.051c6.556-6.483,14.343-11.595,23.369-15.332
		c9.02-3.734,18.891-5.604,29.606-5.604c5.5,0,11.029,0.459,16.603,1.375c5.568,0.919,11.172,2.644,16.813,5.181L501.917,162.643z
		 M488.012,114.849c-2.684-0.562-5.717-0.846-9.104-0.846c-6.353,0-12.209,1.375-17.572,4.124
		c-5.365,2.749-9.986,6.417-13.865,10.997c-3.879,4.583-6.879,9.833-8.995,15.755c-2.115,5.922-3.176,12.127-3.176,18.609
		c0,3.246,0.281,6.275,0.847,9.094c0.563,2.822,1.515,5.287,2.855,7.402c1.338,2.113,3.137,3.807,5.393,5.074
		c2.255,1.27,5.146,1.902,8.671,1.902c4.512,0,8.491-0.951,11.948-2.854c3.453-1.902,6.662-4.476,9.623-7.719
		c0.14-3.664,0.455-7.117,0.951-10.363c0.492-3.24,1.162-6.482,2.008-9.729L488.012,114.849z"/>
	<path fill="#EEC328" d="M538.081,205.572h-25.588L539.135,94.97h25.59L538.081,205.572z M557.114,78.264
		c-3.81,0-7.121-1.127-9.939-3.384c-2.822-2.253-4.229-5.637-4.229-10.151c0-5.214,1.799-9.517,5.393-12.9
		c3.596-3.384,7.721-5.076,12.373-5.076c3.807,0,7.152,1.163,10.045,3.489c2.887,2.327,4.334,5.747,4.334,10.257
		c0,5.218-1.834,9.483-5.498,12.794C565.92,76.608,561.764,78.264,557.114,78.264z"/>
	<path fill="#EEC328" d="M601.735,208.533c-6.63,0-12.343-1.094-17.132-3.277c-4.797-2.185-8.706-5.182-11.735-8.988
		c-3.033-3.807-5.254-8.314-6.662-13.533c-1.41-5.215-2.115-10.854-2.115-16.92c0-9.441,1.66-18.571,4.978-27.385
		c3.317-8.811,8.047-16.563,14.186-23.263c6.141-6.695,13.654-12.054,22.549-16.072c8.896-4.018,18.984-6.027,30.277-6.027
		c1.412,0,3.106,0.073,5.082,0.211c1.977,0.142,4.164,0.496,6.563,1.058l11.533-48.64l26.646-4.229L656.93,161.375
		c-0.707,3.245-1.235,6.521-1.586,9.833c-0.354,3.313-0.528,6.451-0.528,9.412c0,3.807,0.35,7.612,1.057,11.419
		c0.705,3.807,1.832,7.755,3.385,11.843l-22.84,3.384c-1.553-2.961-2.891-6.556-4.018-10.785c-3.525,3.104-7.826,5.89-12.9,8.354
		C614.42,207.298,608.5,208.533,601.735,208.533z M642.5,115.061c-2.678-0.562-5.918-0.846-9.719-0.846
		c-6.482,0-12.398,1.375-17.75,4.124c-5.355,2.75-9.933,6.417-13.734,10.998c-3.803,4.582-6.725,9.833-8.766,15.754
		c-2.043,5.923-3.064,12.056-3.064,18.398c0,3.245,0.316,6.274,0.951,9.094c0.635,2.821,1.654,5.287,3.066,7.401
		c1.407,2.115,3.276,3.808,5.604,5.076c2.328,1.268,5.184,1.901,8.564,1.901c4.512,0,8.491-0.916,11.948-2.75
		c3.453-1.83,6.73-4.367,9.834-7.61c0.14-2.961,0.455-6.063,0.947-9.308c0.49-3.241,1.088-6.413,1.789-9.517L642.5,115.061z"/>
	<path fill="#EEC328" d="M674.905,165.604c0-9.441,1.512-18.572,4.545-27.387c3.031-8.809,7.399-16.633,13.11-23.474
		c5.709-6.836,12.582-12.298,20.619-16.389c8.035-4.087,17.06-6.133,27.068-6.133c10.713,0,19.033,2.749,24.955,8.248
		c5.92,5.499,8.881,12.55,8.881,21.147c0,8.882-2.188,16.071-6.555,21.571c-4.373,5.498-10.047,9.801-17.025,12.897
		c-6.979,3.104-14.875,5.22-23.686,6.347c-8.813,1.129-17.73,1.834-26.752,2.113c-0.142,0.283-0.211,0.563-0.211,0.848v2.112
		c0,12.831,8.104,19.245,24.319,19.245c9.586,0,19.172-1.975,28.761-5.922l2.114,20.727c-3.383,1.553-8.178,3.103-14.381,4.65
		c-6.205,1.55-13.252,2.326-21.146,2.326c-7.898,0-14.664-1.131-20.304-3.385c-5.641-2.254-10.256-5.355-13.852-9.306
		c-3.594-3.944-6.238-8.491-7.93-13.64C675.75,177.061,674.905,171.525,674.905,165.604z M736.444,113.157
		c-4.23,0-8.248,0.846-12.058,2.538c-3.807,1.692-7.188,4.018-10.147,6.979c-2.961,2.96-5.535,6.45-7.722,10.469
		c-2.188,4.02-3.771,8.354-4.758,13.006c16.918-0.563,29.217-2.605,36.902-6.133c7.682-3.521,11.524-8.811,11.524-15.861
		c0-2.819-1.024-5.356-3.065-7.613C745.079,114.288,741.518,113.157,736.444,113.157z"/>
	<path fill="#EEC328" d="M795.233,99.623c5.637-1.691,12.088-3.278,19.35-4.758c7.26-1.48,15.19-2.221,23.791-2.221
		c12.971,0,22.486,3.172,28.551,9.517c6.062,6.344,9.094,14.876,9.094,25.588c0,2.961-0.247,6.101-0.739,9.411
		c-0.496,3.314-1.095,6.734-1.799,10.256l-13.957,58.156h-25.56l13.082-55.406c0.703-3.1,1.406-6.271,2.115-9.518
		c0.703-3.24,1.125-6.346,1.268-9.307c0.14-4.933-1.022-9.02-3.487-12.265c-2.47-3.242-7.298-4.864-14.486-4.864
		c-6.064,0-11.281,0.634-15.65,1.903l-21.207,89.452H769.86L795.233,99.623z"/>
</g>
</svg>
